<?xml version="1.0" encoding="utf-8"?>
<!-- Generator: Adobe Illustrator 19.0.0, SVG Export Plug-In . SVG Version: 6.00 Build 0)  -->
<svg version="1.1" id="Layer_1" xmlns="http://www.w3.org/2000/svg" xmlns:xlink="http://www.w3.org/1999/xlink" x="0px" y="0px"
	 viewBox="458.6 178.5 966.2 394.3" style="enable-background:new 458.6 178.5 966.2 394.3;" xml:space="preserve">
<style type="text/css">
	.st0{fill:#070E20;stroke:#000000;stroke-miterlimit:10;}
	.st1{fill:#E5E0CD;}
	.st2{clip-path:url(#SVGID_2_);fill:#BFBFBF;}
	.st3{clip-path:url(#SVGID_4_);fill:#BFBFBF;}
	.st4{clip-path:url(#SVGID_6_);fill:#BFBFBF;}
	.st5{clip-path:url(#SVGID_8_);fill:#BFBFBF;}
	.st6{clip-path:url(#SVGID_10_);fill:#BFBFBF;}
	.st7{clip-path:url(#SVGID_12_);fill:#BFBFBF;}
	.st8{clip-path:url(#SVGID_14_);fill:#BFBFBF;}
	.st9{fill:#F7F6E2;}
	.st10{opacity:0.24;fill:#F15A24;enable-background:new    ;}
	.st11{fill:#F15A24;}
	.st12{fill:none;}
	.st13{fill:#27A7D8;}
	.st14{font-family:'Avayx';}
	.st15{font-size:100.9946px;}
	.st16{font-family:'MyriadPro-Regular';}
</style>
<rect id="XMLID_1_" x="459.1" y="179" class="st0" width="965.2" height="393.3"/>
<g id="XMLID_3_">
	
		<image style="overflow:visible;opacity:0.3;enable-background:new    ;" width="346" height="344" id="XMLID_175_" xlink:href="FE132CCE.png"  transform="matrix(1 0 0 1 430.6 49)">
	</image>
	<g id="XMLID_112_">
		<g id="XMLID_153_">
			<circle id="XMLID_163_" class="st1" cx="604.8" cy="219.2" r="79.9"/>
			<g id="XMLID_154_">
				<g>
					<defs>
						<circle id="SVGID_1_" cx="604.8" cy="219.2" r="79.9"/>
					</defs>
					<clipPath id="SVGID_2_">
						<use xlink:href="#SVGID_1_"  style="overflow:visible;"/>
					</clipPath>
					<circle id="XMLID_162_" class="st2" cx="539.6" cy="203.6" r="18"/>
				</g>
				<g>
					<defs>
						<circle id="SVGID_3_" cx="604.8" cy="219.2" r="79.9"/>
					</defs>
					<clipPath id="SVGID_4_">
						<use xlink:href="#SVGID_3_"  style="overflow:visible;"/>
					</clipPath>
					<circle id="XMLID_161_" class="st3" cx="643.1" cy="261.5" r="18"/>
				</g>
				<g>
					<defs>
						<circle id="SVGID_5_" cx="604.8" cy="219.2" r="79.9"/>
					</defs>
					<clipPath id="SVGID_6_">
						<use xlink:href="#SVGID_5_"  style="overflow:visible;"/>
					</clipPath>
					<circle id="XMLID_160_" class="st4" cx="602" cy="212.2" r="8.7"/>
				</g>
				<g>
					<defs>
						<circle id="SVGID_7_" cx="604.8" cy="219.2" r="79.9"/>
					</defs>
					<clipPath id="SVGID_8_">
						<use xlink:href="#SVGID_7_"  style="overflow:visible;"/>
					</clipPath>
					<circle id="XMLID_159_" class="st5" cx="667.8" cy="183.5" r="18.5"/>
				</g>
				<g>
					<defs>
						<circle id="SVGID_9_" cx="604.8" cy="219.2" r="79.9"/>
					</defs>
					<clipPath id="SVGID_10_">
						<use xlink:href="#SVGID_9_"  style="overflow:visible;"/>
					</clipPath>
					<circle id="XMLID_158_" class="st6" cx="623" cy="168.9" r="12.3"/>
				</g>
				<g>
					<defs>
						<circle id="SVGID_11_" cx="604.8" cy="219.2" r="79.9"/>
					</defs>
					<clipPath id="SVGID_12_">
						<use xlink:href="#SVGID_11_"  style="overflow:visible;"/>
					</clipPath>
					<circle id="XMLID_157_" class="st7" cx="557.6" cy="288.1" r="14.6"/>
				</g>
				<g>
					<defs>
						<circle id="SVGID_13_" cx="604.8" cy="219.2" r="79.9"/>
					</defs>
					<clipPath id="SVGID_14_">
						<use xlink:href="#SVGID_13_"  style="overflow:visible;"/>
					</clipPath>
					<circle id="XMLID_156_" class="st8" cx="572.6" cy="250.8" r="7.3"/>
				</g>
			</g>
		</g>
	</g>
</g>
<g id="XMLID_8_">
	
		<image style="overflow:visible;enable-background:new    ;" width="53" height="54" id="XMLID_38_" xlink:href="FE132CD2.png"  transform="matrix(0.9811 0 0 0.9815 1034.4852 211.4)">
	</image>
	<g id="XMLID_17_">
		<circle id="XMLID_37_" class="st9" cx="1060.2" cy="237.6" r="3.9"/>
	</g>
</g>
<g id="XMLID_9_">
	
		<image style="overflow:visible;enable-background:new    ;" width="31" height="31" id="XMLID_39_" xlink:href="FE132CD5.png"  transform="matrix(0.9677 0 0 0.9677 1209.8302 555.7908)">
	</image>
	<g id="XMLID_16_">
		<circle id="XMLID_36_" class="st9" cx="1224.7" cy="570.8" r="2.7"/>
	</g>
</g>
<g id="XMLID_4_">
	
		<image style="overflow:visible;enable-background:new    ;" width="53" height="54" id="XMLID_44_" xlink:href="FE132CD6.png"  transform="matrix(0.9811 0 0 0.9815 505.3158 413.0839)">
	</image>
	<g id="XMLID_35_">
		<circle id="XMLID_43_" class="st9" cx="531" cy="439.3" r="3.9"/>
	</g>
</g>
<g id="XMLID_2_">
	
		<image style="overflow:visible;enable-background:new    ;" width="53" height="54" id="XMLID_49_" xlink:href="FE132CD4.png"  transform="matrix(0.9811 0 0 0.9815 819.5061 438.6)">
	</image>
	<g id="XMLID_23_">
		<circle id="XMLID_48_" class="st9" cx="845.2" cy="464.6" r="3.9"/>
	</g>
</g>
<g id="XMLID_5_">
	
		<image style="overflow:visible;enable-background:new    ;" width="53" height="54" id="XMLID_54_" xlink:href="FE132CD3.png"  transform="matrix(0.9811 0 0 0.9815 724.6 168)">
	</image>
	<g id="XMLID_45_">
		<circle id="XMLID_53_" class="st9" cx="750.3" cy="194" r="3.9"/>
	</g>
</g>
<g id="XMLID_6_">
	
		<image style="overflow:visible;enable-background:new    ;" width="53" height="54" id="XMLID_59_" xlink:href="FE132CDD.png"  transform="matrix(0.9811 0 0 0.9815 1071.2999 536.825)">
	</image>
	<g id="XMLID_50_">
		<circle id="XMLID_58_" class="st9" cx="1097" cy="562.8" r="3.9"/>
	</g>
</g>
<g id="XMLID_10_">
	
		<image style="overflow:visible;enable-background:new    ;" width="53" height="54" id="XMLID_71_" xlink:href="FE132CDE.png"  transform="matrix(0.9811 0 0 0.9815 860.2 517.7908)">
	</image>
	<g id="XMLID_62_">
		<circle id="XMLID_70_" class="st9" cx="885.9" cy="543.8" r="3.9"/>
	</g>
</g>
<g id="XMLID_11_">
	
		<image style="overflow:visible;enable-background:new    ;" width="53" height="54" id="XMLID_76_" xlink:href="FE132CDC.png"  transform="matrix(0.9811 0 0 0.9815 1211.5 252.5)">
	</image>
	<g id="XMLID_67_">
		<circle id="XMLID_75_" class="st9" cx="1237.2" cy="278.5" r="3.9"/>
	</g>
</g>
<g id="XMLID_22_">
	
		<image style="overflow:visible;enable-background:new    ;" width="31" height="31" id="XMLID_91_" xlink:href="B8C57A11.png"  transform="matrix(0.9677 0 0 0.9677 1394.3334 460.5908)">
	</image>
	<g id="XMLID_82_">
		<circle id="XMLID_90_" class="st9" cx="1409.7" cy="475.6" r="2.7"/>
	</g>
</g>
<g id="XMLID_42_">
	
		<image style="overflow:visible;enable-background:new    ;" width="31" height="31" id="XMLID_96_" xlink:href="B8C57A17.png"  transform="matrix(0.9677 0 0 0.9677 1086.4852 439.5839)">
	</image>
	<g id="XMLID_87_">
		<circle id="XMLID_95_" class="st9" cx="1101.8" cy="454.6" r="2.7"/>
	</g>
</g>
<g id="XMLID_47_">
	
		<image style="overflow:visible;enable-background:new    ;" width="31" height="31" id="XMLID_101_" xlink:href="B8C57A10.png"  transform="matrix(0.9677 0 0 0.9677 695.9 297.7005)">
	</image>
	<g id="XMLID_92_">
		<circle id="XMLID_100_" class="st9" cx="711.3" cy="312.7" r="2.7"/>
	</g>
</g>
<g id="XMLID_51_">
	
		<image style="overflow:visible;enable-background:new    ;" width="31" height="31" id="XMLID_106_" xlink:href="B8C57A13.png"  transform="matrix(0.9677 0 0 0.9677 974 502.7908)">
	</image>
	<g id="XMLID_97_">
		<circle id="XMLID_105_" class="st9" cx="989.3" cy="517.7" r="2.7"/>
	</g>
</g>
<g id="XMLID_52_">
	
		<image style="overflow:visible;enable-background:new    ;" width="31" height="31" id="XMLID_114_" xlink:href="B8C57A0F.png"  transform="matrix(0.9677 0 0 0.9677 1394.3334 252.5)">
	</image>
	<g id="XMLID_102_">
		<circle id="XMLID_111_" class="st9" cx="1409.7" cy="267.5" r="2.7"/>
	</g>
</g>
<g id="XMLID_69_">
	
		<image style="overflow:visible;enable-background:new    ;" width="23" height="23" id="XMLID_136_" xlink:href="B8C57A2F.png"  transform="matrix(0.9565 0 0 0.9565 683.4086 501.3094)">
	</image>
	<g id="XMLID_126_">
		<circle id="XMLID_135_" class="st9" cx="694.2" cy="512.6" r="1.7"/>
	</g>
</g>
<g id="XMLID_74_">
	
		<image style="overflow:visible;enable-background:new    ;" width="23" height="23" id="XMLID_142_" xlink:href="B8C57A31.png"  transform="matrix(0.9565 0 0 0.9565 855 226.9)">
	</image>
	<g id="XMLID_132_">
		<circle id="XMLID_141_" class="st9" cx="865.8" cy="238.2" r="1.7"/>
	</g>
</g>
<g id="XMLID_99_">
	
		<image style="overflow:visible;opacity:0.4;enable-background:new    ;" width="365" height="365" id="XMLID_202_" xlink:href="B8C57A33.png"  transform="matrix(1 0 0 1 1136.3 295.8)">
	</image>
	<g id="XMLID_181_">
		<g id="XMLID_194_">
			<g id="XMLID_196_">
				<circle id="XMLID_197_" class="st10" cx="1318.8" cy="478.3" r="107.2"/>
			</g>
			<circle id="XMLID_195_" class="st11" cx="1318.5" cy="478.6" r="79.9"/>
		</g>
	</g>
</g>
<circle id="XMLID_94_" class="st12" cx="1293.2" cy="552.8" r="79.9"/>
<g>
	
		<image style="overflow:visible;opacity:0.75;" width="3213" height="638" xlink:href="B8C57A30.png"  transform="matrix(0.24 0 0 0.24 557.1998 290.9508)">
	</image>
	<g>
		<text transform="matrix(1 0 0 1 578.7998 397.0839)"><tspan x="0" y="0" class="st13 st14 st15">You</tspan><tspan x="266.2" y="0" class="st13 st16 st15">’</tspan><tspan x="287.1" y="0" class="st13 st14 st15">re In!!</tspan></text>
	</g>
</g>
</svg>
